<svg width="200" height="200" viewBox="0 0 200 200" xmlns="http://www.w3.org/2000/svg">
  <!-- Background circle -->
  <circle cx="100" cy="100" r="90" fill="#1F2937" stroke="#6B7280" stroke-width="2"/>
  
  <!-- Dancing person 1 (left) -->
  <path d="M70 60 C 65 60, 60 65, 60 70 C 60 75, 65 80, 70 80 C 75 80, 80 75, 80 70 C 80 65, 75 60, 70 60 Z" fill="#9CA3AF"/>
  <path d="M70 80 L 70 120 L 80 120 L 80 80 Z" fill="#9CA3AF"/>
  <path d="M70 90 L 60 100 L 60 110 L 70 100 Z" fill="#9CA3AF"/>
  <path d="M80 90 L 90 100 L 90 110 L 80 100 Z" fill="#9CA3AF"/>
  
  <!-- Dancing person 2 (right) -->
  <path d="M120 50 C 115 50, 110 55, 110 60 C 110 65, 115 70, 120 70 C 125 70, 130 65, 130 60 C 130 55, 125 50, 120 50 Z" fill="#9CA3AF"/>
  <path d="M120 70 L 120 110 L 130 110 L 130 70 Z" fill="#9CA3AF"/>
  <path d="M120 80 L 110 90 L 110 100 L 120 90 Z" fill="#9CA3AF"/>
  <path d="M130 80 L 140 90 L 140 100 L 130 90 Z" fill="#9CA3AF"/>
  
  <!-- Dancing person 3 (center) -->
  <path d="M95 70 C 90 70, 85 75, 85 80 C 85 85, 90 90, 95 90 C 100 90, 105 85, 105 80 C 105 75, 100 70, 95 70 Z" fill="#9CA3AF"/>
  <path d="M95 90 L 95 130 L 105 130 L 105 90 Z" fill="#9CA3AF"/>
  <path d="M95 100 L 85 110 L 85 120 L 95 110 Z" fill="#9CA3AF"/>
  <path d="M105 100 L 115 110 L 115 120 L 105 110 Z" fill="#9CA3AF"/>
  
  <!-- Party elements -->
  <circle cx="50" cy="40" r="3" fill="#F59E0B"/>
  <circle cx="150" cy="30" r="3" fill="#EF4444"/>
  <circle cx="40" cy="160" r="3" fill="#10B981"/>
  <circle cx="160" cy="170" r="3" fill="#8B5CF6"/>
  
  <!-- Music notes -->
  <path d="M30 80 L 35 75 L 40 80 L 35 85 Z" fill="#F59E0B"/>
  <path d="M170 90 L 175 85 L 180 90 L 175 95 Z" fill="#EF4444"/>
  
  <!-- Event text -->
  <text x="100" y="170" font-family="Arial, sans-serif" font-size="12" font-weight="bold" text-anchor="middle" fill="#F3F4F6">EVENT</text>
</svg>
